ISO-10303-21;
HEADER;
FILE_DESCRIPTION(('mockup box model'),'2;1');
FILE_NAME('dcdc_sip3.step','2026-09-17T00:00:00',(''),(''),'','','');
FILE_SCHEMA(('AUTOMOTIVE_DESIGN { 1 0 10303 214 1 1 1 1 }'));
ENDSEC;
DATA;
#1=APPLICATION_CONTEXT('core data for automotive mechanical design processes');
#2=APPLICATION_PROTOCOL_DEFINITION('international standard','automotive_design',2000,#1);
#3=PRODUCT_CONTEXT('',#1,'mechanical');
#4=PRODUCT('dcdc_sip3','dcdc_sip3','',(#3));
#5=PRODUCT_DEFINITION_FORMATION('','',#4);
#6=PRODUCT_DEFINITION_CONTEXT('part definition',#1,'design');
#7=PRODUCT_DEFINITION('design','',#5,#6);
#8=PRODUCT_DEFINITION_SHAPE('','',#7);
#9=SHAPE_DEFINITION_REPRESENTATION(#8,#20);
#10=(LENGTH_UNIT()NAMED_UNIT(*)SI_UNIT(.MILLI.,.METRE.));
#11=(NAMED_UNIT(*)PLANE_ANGLE_UNIT()SI_UNIT($,.RADIAN.));
#12=(NAMED_UNIT(*)SI_UNIT($,.STERADIAN.)SOLID_ANGLE_UNIT());
#13=UNCERTAINTY_MEASURE_WITH_UNIT(LENGTH_MEASURE(1.E-07),#10,'distance_accuracy_value','confusion accuracy');
#14=(GEOMETRIC_REPRESENTATION_CONTEXT(3)GLOBAL_UNCERTAINTY_ASSIGNED_CONTEXT((#13))GLOBAL_UNIT_ASSIGNED_CONTEXT((#10,#11,#12))REPRESENTATION_CONTEXT('Context #1','3D Context with UNIT and UNCERTAINTY'));
#15=AXIS2_PLACEMENT_3D('',#16,#17,#18);
#16=CARTESIAN_POINT('',(0.,0.,0.));
#17=DIRECTION('',(0.,0.,1.));
#18=DIRECTION('',(1.,0.,0.));
#20=ADVANCED_BREP_SHAPE_REPRESENTATION('dcdc_sip3',(#15,#249),#14);
#21=PRODUCT_RELATED_PRODUCT_CATEGORY('part',$,(#4));
#100=CARTESIAN_POINT('',(-6.5000,-8.3400,0.0000));
#101=VERTEX_POINT('',#100);
#102=CARTESIAN_POINT('',(1.0000,-8.3400,0.0000));
#103=VERTEX_POINT('',#102);
#104=CARTESIAN_POINT('',(-6.5000,3.2600,0.0000));
#105=VERTEX_POINT('',#104);
#106=CARTESIAN_POINT('',(1.0000,3.2600,0.0000));
#107=VERTEX_POINT('',#106);
#108=CARTESIAN_POINT('',(-6.5000,-8.3400,10.2000));
#109=VERTEX_POINT('',#108);
#110=CARTESIAN_POINT('',(1.0000,-8.3400,10.2000));
#111=VERTEX_POINT('',#110);
#112=CARTESIAN_POINT('',(-6.5000,3.2600,10.2000));
#113=VERTEX_POINT('',#112);
#114=CARTESIAN_POINT('',(1.0000,3.2600,10.2000));
#115=VERTEX_POINT('',#114);
#116=CARTESIAN_POINT('',(-6.5000,-8.3400,0.0000));
#117=DIRECTION('',(0.0,1.0,0.0));
#118=VECTOR('',#117,11.6000);
#119=LINE('',#116,#118);
#120=EDGE_CURVE('',#101,#105,#119,.T.);
#121=ORIENTED_EDGE('',*,*,#120,.T.);
#122=CARTESIAN_POINT('',(-6.5000,3.2600,0.0000));
#123=DIRECTION('',(1.0,0.0,0.0));
#124=VECTOR('',#123,7.5000);
#125=LINE('',#122,#124);
#126=EDGE_CURVE('',#105,#107,#125,.T.);
#127=ORIENTED_EDGE('',*,*,#126,.T.);
#128=CARTESIAN_POINT('',(1.0000,3.2600,0.0000));
#129=DIRECTION('',(0.0,-1.0,0.0));
#130=VECTOR('',#129,11.6000);
#131=LINE('',#128,#130);
#132=EDGE_CURVE('',#107,#103,#131,.T.);
#133=ORIENTED_EDGE('',*,*,#132,.T.);
#134=CARTESIAN_POINT('',(1.0000,-8.3400,0.0000));
#135=DIRECTION('',(-1.0,0.0,0.0));
#136=VECTOR('',#135,7.5000);
#137=LINE('',#134,#136);
#138=EDGE_CURVE('',#103,#101,#137,.T.);
#139=ORIENTED_EDGE('',*,*,#138,.T.);
#140=EDGE_LOOP('',(#121,#127,#133,#139));
#141=FACE_OUTER_BOUND('',#140,.T.);
#142=CARTESIAN_POINT('',(-6.5000,-8.3400,0.0000));
#143=DIRECTION('',(0.0,0.0,-1.0));
#144=DIRECTION('',(1.0,0.0,0.0));
#145=AXIS2_PLACEMENT_3D('',#142,#143,#144);
#146=PLANE('',#145);
#147=ADVANCED_FACE('',(#141),#146,.T.);
#148=CARTESIAN_POINT('',(-6.5000,-8.3400,10.2000));
#149=DIRECTION('',(1.0,0.0,0.0));
#150=VECTOR('',#149,7.5000);
#151=LINE('',#148,#150);
#152=EDGE_CURVE('',#109,#111,#151,.T.);
#153=ORIENTED_EDGE('',*,*,#152,.T.);
#154=CARTESIAN_POINT('',(1.0000,-8.3400,10.2000));
#155=DIRECTION('',(0.0,1.0,0.0));
#156=VECTOR('',#155,11.6000);
#157=LINE('',#154,#156);
#158=EDGE_CURVE('',#111,#115,#157,.T.);
#159=ORIENTED_EDGE('',*,*,#158,.T.);
#160=CARTESIAN_POINT('',(1.0000,3.2600,10.2000));
#161=DIRECTION('',(-1.0,0.0,0.0));
#162=VECTOR('',#161,7.5000);
#163=LINE('',#160,#162);
#164=EDGE_CURVE('',#115,#113,#163,.T.);
#165=ORIENTED_EDGE('',*,*,#164,.T.);
#166=CARTESIAN_POINT('',(-6.5000,3.2600,10.2000));
#167=DIRECTION('',(0.0,-1.0,0.0));
#168=VECTOR('',#167,11.6000);
#169=LINE('',#166,#168);
#170=EDGE_CURVE('',#113,#109,#169,.T.);
#171=ORIENTED_EDGE('',*,*,#170,.T.);
#172=EDGE_LOOP('',(#153,#159,#165,#171));
#173=FACE_OUTER_BOUND('',#172,.T.);
#174=CARTESIAN_POINT('',(-6.5000,-8.3400,10.2000));
#175=DIRECTION('',(0.0,0.0,1.0));
#176=DIRECTION('',(1.0,0.0,0.0));
#177=AXIS2_PLACEMENT_3D('',#174,#175,#176);
#178=PLANE('',#177);
#179=ADVANCED_FACE('',(#173),#178,.T.);
#180=ORIENTED_EDGE('',*,*,#138,.F.);
#181=CARTESIAN_POINT('',(1.0000,-8.3400,0.0000));
#182=DIRECTION('',(0.0,0.0,1.0));
#183=VECTOR('',#182,10.2000);
#184=LINE('',#181,#183);
#185=EDGE_CURVE('',#103,#111,#184,.T.);
#186=ORIENTED_EDGE('',*,*,#185,.T.);
#187=ORIENTED_EDGE('',*,*,#152,.F.);
#188=CARTESIAN_POINT('',(-6.5000,-8.3400,10.2000));
#189=DIRECTION('',(0.0,0.0,-1.0));
#190=VECTOR('',#189,10.2000);
#191=LINE('',#188,#190);
#192=EDGE_CURVE('',#109,#101,#191,.T.);
#193=ORIENTED_EDGE('',*,*,#192,.T.);
#194=EDGE_LOOP('',(#180,#186,#187,#193));
#195=FACE_OUTER_BOUND('',#194,.T.);
#196=CARTESIAN_POINT('',(-6.5000,-8.3400,0.0000));
#197=DIRECTION('',(0.0,-1.0,0.0));
#198=DIRECTION('',(1.0,0.0,0.0));
#199=AXIS2_PLACEMENT_3D('',#196,#197,#198);
#200=PLANE('',#199);
#201=ADVANCED_FACE('',(#195),#200,.T.);
#202=CARTESIAN_POINT('',(-6.5000,3.2600,0.0000));
#203=DIRECTION('',(0.0,0.0,1.0));
#204=VECTOR('',#203,10.2000);
#205=LINE('',#202,#204);
#206=EDGE_CURVE('',#105,#113,#205,.T.);
#207=ORIENTED_EDGE('',*,*,#206,.T.);
#208=ORIENTED_EDGE('',*,*,#164,.F.);
#209=CARTESIAN_POINT('',(1.0000,3.2600,10.2000));
#210=DIRECTION('',(0.0,0.0,-1.0));
#211=VECTOR('',#210,10.2000);
#212=LINE('',#209,#211);
#213=EDGE_CURVE('',#115,#107,#212,.T.);
#214=ORIENTED_EDGE('',*,*,#213,.T.);
#215=ORIENTED_EDGE('',*,*,#126,.F.);
#216=EDGE_LOOP('',(#207,#208,#214,#215));
#217=FACE_OUTER_BOUND('',#216,.T.);
#218=CARTESIAN_POINT('',(-6.5000,3.2600,0.0000));
#219=DIRECTION('',(0.0,1.0,0.0));
#220=DIRECTION('',(1.0,0.0,0.0));
#221=AXIS2_PLACEMENT_3D('',#218,#219,#220);
#222=PLANE('',#221);
#223=ADVANCED_FACE('',(#217),#222,.T.);
#224=ORIENTED_EDGE('',*,*,#192,.F.);
#225=ORIENTED_EDGE('',*,*,#170,.F.);
#226=ORIENTED_EDGE('',*,*,#206,.F.);
#227=ORIENTED_EDGE('',*,*,#120,.F.);
#228=EDGE_LOOP('',(#224,#225,#226,#227));
#229=FACE_OUTER_BOUND('',#228,.T.);
#230=CARTESIAN_POINT('',(-6.5000,-8.3400,0.0000));
#231=DIRECTION('',(-1.0,0.0,0.0));
#232=DIRECTION('',(0.0,1.0,0.0));
#233=AXIS2_PLACEMENT_3D('',#230,#231,#232);
#234=PLANE('',#233);
#235=ADVANCED_FACE('',(#229),#234,.T.);
#236=ORIENTED_EDGE('',*,*,#132,.F.);
#237=ORIENTED_EDGE('',*,*,#213,.F.);
#238=ORIENTED_EDGE('',*,*,#158,.F.);
#239=ORIENTED_EDGE('',*,*,#185,.F.);
#240=EDGE_LOOP('',(#236,#237,#238,#239));
#241=FACE_OUTER_BOUND('',#240,.T.);
#242=CARTESIAN_POINT('',(1.0000,-8.3400,0.0000));
#243=DIRECTION('',(1.0,0.0,0.0));
#244=DIRECTION('',(0.0,1.0,0.0));
#245=AXIS2_PLACEMENT_3D('',#242,#243,#244);
#246=PLANE('',#245);
#247=ADVANCED_FACE('',(#241),#246,.T.);
#248=CLOSED_SHELL('',(#147,#179,#201,#223,#235,#247));
#249=MANIFOLD_SOLID_BREP('box',#248);
ENDSEC;
END-ISO-10303-21;
