ISO-10303-21;
HEADER;
FILE_DESCRIPTION(('mockup box model'),'2;1');
FILE_NAME('esp32_devkit_v1_30.step','2026-09-17T00:00:00',(''),(''),'','','');
FILE_SCHEMA(('AUTOMOTIVE_DESIGN { 1 0 10303 214 1 1 1 1 }'));
ENDSEC;
DATA;
#1=APPLICATION_CONTEXT('core data for automotive mechanical design processes');
#2=APPLICATION_PROTOCOL_DEFINITION('international standard','automotive_design',2000,#1);
#3=PRODUCT_CONTEXT('',#1,'mechanical');
#4=PRODUCT('esp32_devkit_v1_30','esp32_devkit_v1_30','',(#3));
#5=PRODUCT_DEFINITION_FORMATION('','',#4);
#6=PRODUCT_DEFINITION_CONTEXT('part definition',#1,'design');
#7=PRODUCT_DEFINITION('design','',#5,#6);
#8=PRODUCT_DEFINITION_SHAPE('','',#7);
#9=SHAPE_DEFINITION_REPRESENTATION(#8,#20);
#10=(LENGTH_UNIT()NAMED_UNIT(*)SI_UNIT(.MILLI.,.METRE.));
#11=(NAMED_UNIT(*)PLANE_ANGLE_UNIT()SI_UNIT($,.RADIAN.));
#12=(NAMED_UNIT(*)SI_UNIT($,.STERADIAN.)SOLID_ANGLE_UNIT());
#13=UNCERTAINTY_MEASURE_WITH_UNIT(LENGTH_MEASURE(1.E-07),#10,'distance_accuracy_value','confusion accuracy');
#14=(GEOMETRIC_REPRESENTATION_CONTEXT(3)GLOBAL_UNCERTAINTY_ASSIGNED_CONTEXT((#13))GLOBAL_UNIT_ASSIGNED_CONTEXT((#10,#11,#12))REPRESENTATION_CONTEXT('Context #1','3D Context with UNIT and UNCERTAINTY'));
#15=AXIS2_PLACEMENT_3D('',#16,#17,#18);
#16=CARTESIAN_POINT('',(0.,0.,0.));
#17=DIRECTION('',(0.,0.,1.));
#18=DIRECTION('',(1.,0.,0.));
#20=ADVANCED_BREP_SHAPE_REPRESENTATION('esp32_devkit_v1_30',(#15,#249,#399,#549,#699,#849,#999,#1149),#14);
#21=PRODUCT_RELATED_PRODUCT_CATEGORY('part',$,(#4));
#100=CARTESIAN_POINT('',(-1.2700,-36.8300,8.5000));
#101=VERTEX_POINT('',#100);
#102=CARTESIAN_POINT('',(1.2700,-36.8300,8.5000));
#103=VERTEX_POINT('',#102);
#104=CARTESIAN_POINT('',(-1.2700,1.2700,8.5000));
#105=VERTEX_POINT('',#104);
#106=CARTESIAN_POINT('',(1.2700,1.2700,8.5000));
#107=VERTEX_POINT('',#106);
#108=CARTESIAN_POINT('',(-1.2700,-36.8300,11.0000));
#109=VERTEX_POINT('',#108);
#110=CARTESIAN_POINT('',(1.2700,-36.8300,11.0000));
#111=VERTEX_POINT('',#110);
#112=CARTESIAN_POINT('',(-1.2700,1.2700,11.0000));
#113=VERTEX_POINT('',#112);
#114=CARTESIAN_POINT('',(1.2700,1.2700,11.0000));
#115=VERTEX_POINT('',#114);
#116=CARTESIAN_POINT('',(-1.2700,-36.8300,8.5000));
#117=DIRECTION('',(0.0,1.0,0.0));
#118=VECTOR('',#117,38.1000);
#119=LINE('',#116,#118);
#120=EDGE_CURVE('',#101,#105,#119,.T.);
#121=ORIENTED_EDGE('',*,*,#120,.T.);
#122=CARTESIAN_POINT('',(-1.2700,1.2700,8.5000));
#123=DIRECTION('',(1.0,0.0,0.0));
#124=VECTOR('',#123,2.5400);
#125=LINE('',#122,#124);
#126=EDGE_CURVE('',#105,#107,#125,.T.);
#127=ORIENTED_EDGE('',*,*,#126,.T.);
#128=CARTESIAN_POINT('',(1.2700,1.2700,8.5000));
#129=DIRECTION('',(0.0,-1.0,0.0));
#130=VECTOR('',#129,38.1000);
#131=LINE('',#128,#130);
#132=EDGE_CURVE('',#107,#103,#131,.T.);
#133=ORIENTED_EDGE('',*,*,#132,.T.);
#134=CARTESIAN_POINT('',(1.2700,-36.8300,8.5000));
#135=DIRECTION('',(-1.0,0.0,0.0));
#136=VECTOR('',#135,2.5400);
#137=LINE('',#134,#136);
#138=EDGE_CURVE('',#103,#101,#137,.T.);
#139=ORIENTED_EDGE('',*,*,#138,.T.);
#140=EDGE_LOOP('',(#121,#127,#133,#139));
#141=FACE_OUTER_BOUND('',#140,.T.);
#142=CARTESIAN_POINT('',(-1.2700,-36.8300,8.5000));
#143=DIRECTION('',(0.0,0.0,-1.0));
#144=DIRECTION('',(1.0,0.0,0.0));
#145=AXIS2_PLACEMENT_3D('',#142,#143,#144);
#146=PLANE('',#145);
#147=ADVANCED_FACE('',(#141),#146,.T.);
#148=CARTESIAN_POINT('',(-1.2700,-36.8300,11.0000));
#149=DIRECTION('',(1.0,0.0,0.0));
#150=VECTOR('',#149,2.5400);
#151=LINE('',#148,#150);
#152=EDGE_CURVE('',#109,#111,#151,.T.);
#153=ORIENTED_EDGE('',*,*,#152,.T.);
#154=CARTESIAN_POINT('',(1.2700,-36.8300,11.0000));
#155=DIRECTION('',(0.0,1.0,0.0));
#156=VECTOR('',#155,38.1000);
#157=LINE('',#154,#156);
#158=EDGE_CURVE('',#111,#115,#157,.T.);
#159=ORIENTED_EDGE('',*,*,#158,.T.);
#160=CARTESIAN_POINT('',(1.2700,1.2700,11.0000));
#161=DIRECTION('',(-1.0,0.0,0.0));
#162=VECTOR('',#161,2.5400);
#163=LINE('',#160,#162);
#164=EDGE_CURVE('',#115,#113,#163,.T.);
#165=ORIENTED_EDGE('',*,*,#164,.T.);
#166=CARTESIAN_POINT('',(-1.2700,1.2700,11.0000));
#167=DIRECTION('',(0.0,-1.0,0.0));
#168=VECTOR('',#167,38.1000);
#169=LINE('',#166,#168);
#170=EDGE_CURVE('',#113,#109,#169,.T.);
#171=ORIENTED_EDGE('',*,*,#170,.T.);
#172=EDGE_LOOP('',(#153,#159,#165,#171));
#173=FACE_OUTER_BOUND('',#172,.T.);
#174=CARTESIAN_POINT('',(-1.2700,-36.8300,11.0000));
#175=DIRECTION('',(0.0,0.0,1.0));
#176=DIRECTION('',(1.0,0.0,0.0));
#177=AXIS2_PLACEMENT_3D('',#174,#175,#176);
#178=PLANE('',#177);
#179=ADVANCED_FACE('',(#173),#178,.T.);
#180=ORIENTED_EDGE('',*,*,#138,.F.);
#181=CARTESIAN_POINT('',(1.2700,-36.8300,8.5000));
#182=DIRECTION('',(0.0,0.0,1.0));
#183=VECTOR('',#182,2.5000);
#184=LINE('',#181,#183);
#185=EDGE_CURVE('',#103,#111,#184,.T.);
#186=ORIENTED_EDGE('',*,*,#185,.T.);
#187=ORIENTED_EDGE('',*,*,#152,.F.);
#188=CARTESIAN_POINT('',(-1.2700,-36.8300,11.0000));
#189=DIRECTION('',(0.0,0.0,-1.0));
#190=VECTOR('',#189,2.5000);
#191=LINE('',#188,#190);
#192=EDGE_CURVE('',#109,#101,#191,.T.);
#193=ORIENTED_EDGE('',*,*,#192,.T.);
#194=EDGE_LOOP('',(#180,#186,#187,#193));
#195=FACE_OUTER_BOUND('',#194,.T.);
#196=CARTESIAN_POINT('',(-1.2700,-36.8300,8.5000));
#197=DIRECTION('',(0.0,-1.0,0.0));
#198=DIRECTION('',(1.0,0.0,0.0));
#199=AXIS2_PLACEMENT_3D('',#196,#197,#198);
#200=PLANE('',#199);
#201=ADVANCED_FACE('',(#195),#200,.T.);
#202=CARTESIAN_POINT('',(-1.2700,1.2700,8.5000));
#203=DIRECTION('',(0.0,0.0,1.0));
#204=VECTOR('',#203,2.5000);
#205=LINE('',#202,#204);
#206=EDGE_CURVE('',#105,#113,#205,.T.);
#207=ORIENTED_EDGE('',*,*,#206,.T.);
#208=ORIENTED_EDGE('',*,*,#164,.F.);
#209=CARTESIAN_POINT('',(1.2700,1.2700,11.0000));
#210=DIRECTION('',(0.0,0.0,-1.0));
#211=VECTOR('',#210,2.5000);
#212=LINE('',#209,#211);
#213=EDGE_CURVE('',#115,#107,#212,.T.);
#214=ORIENTED_EDGE('',*,*,#213,.T.);
#215=ORIENTED_EDGE('',*,*,#126,.F.);
#216=EDGE_LOOP('',(#207,#208,#214,#215));
#217=FACE_OUTER_BOUND('',#216,.T.);
#218=CARTESIAN_POINT('',(-1.2700,1.2700,8.5000));
#219=DIRECTION('',(0.0,1.0,0.0));
#220=DIRECTION('',(1.0,0.0,0.0));
#221=AXIS2_PLACEMENT_3D('',#218,#219,#220);
#222=PLANE('',#221);
#223=ADVANCED_FACE('',(#217),#222,.T.);
#224=ORIENTED_EDGE('',*,*,#192,.F.);
#225=ORIENTED_EDGE('',*,*,#170,.F.);
#226=ORIENTED_EDGE('',*,*,#206,.F.);
#227=ORIENTED_EDGE('',*,*,#120,.F.);
#228=EDGE_LOOP('',(#224,#225,#226,#227));
#229=FACE_OUTER_BOUND('',#228,.T.);
#230=CARTESIAN_POINT('',(-1.2700,-36.8300,8.5000));
#231=DIRECTION('',(-1.0,0.0,0.0));
#232=DIRECTION('',(0.0,1.0,0.0));
#233=AXIS2_PLACEMENT_3D('',#230,#231,#232);
#234=PLANE('',#233);
#235=ADVANCED_FACE('',(#229),#234,.T.);
#236=ORIENTED_EDGE('',*,*,#132,.F.);
#237=ORIENTED_EDGE('',*,*,#213,.F.);
#238=ORIENTED_EDGE('',*,*,#158,.F.);
#239=ORIENTED_EDGE('',*,*,#185,.F.);
#240=EDGE_LOOP('',(#236,#237,#238,#239));
#241=FACE_OUTER_BOUND('',#240,.T.);
#242=CARTESIAN_POINT('',(1.2700,-36.8300,8.5000));
#243=DIRECTION('',(1.0,0.0,0.0));
#244=DIRECTION('',(0.0,1.0,0.0));
#245=AXIS2_PLACEMENT_3D('',#242,#243,#244);
#246=PLANE('',#245);
#247=ADVANCED_FACE('',(#241),#246,.T.);
#248=CLOSED_SHELL('',(#147,#179,#201,#223,#235,#247));
#249=MANIFOLD_SOLID_BREP('box',#248);
#250=CARTESIAN_POINT('',(24.1300,-36.8300,8.5000));
#251=VERTEX_POINT('',#250);
#252=CARTESIAN_POINT('',(26.6700,-36.8300,8.5000));
#253=VERTEX_POINT('',#252);
#254=CARTESIAN_POINT('',(24.1300,1.2700,8.5000));
#255=VERTEX_POINT('',#254);
#256=CARTESIAN_POINT('',(26.6700,1.2700,8.5000));
#257=VERTEX_POINT('',#256);
#258=CARTESIAN_POINT('',(24.1300,-36.8300,11.0000));
#259=VERTEX_POINT('',#258);
#260=CARTESIAN_POINT('',(26.6700,-36.8300,11.0000));
#261=VERTEX_POINT('',#260);
#262=CARTESIAN_POINT('',(24.1300,1.2700,11.0000));
#263=VERTEX_POINT('',#262);
#264=CARTESIAN_POINT('',(26.6700,1.2700,11.0000));
#265=VERTEX_POINT('',#264);
#266=CARTESIAN_POINT('',(24.1300,-36.8300,8.5000));
#267=DIRECTION('',(0.0,1.0,0.0));
#268=VECTOR('',#267,38.1000);
#269=LINE('',#266,#268);
#270=EDGE_CURVE('',#251,#255,#269,.T.);
#271=ORIENTED_EDGE('',*,*,#270,.T.);
#272=CARTESIAN_POINT('',(24.1300,1.2700,8.5000));
#273=DIRECTION('',(1.0,0.0,0.0));
#274=VECTOR('',#273,2.5400);
#275=LINE('',#272,#274);
#276=EDGE_CURVE('',#255,#257,#275,.T.);
#277=ORIENTED_EDGE('',*,*,#276,.T.);
#278=CARTESIAN_POINT('',(26.6700,1.2700,8.5000));
#279=DIRECTION('',(0.0,-1.0,0.0));
#280=VECTOR('',#279,38.1000);
#281=LINE('',#278,#280);
#282=EDGE_CURVE('',#257,#253,#281,.T.);
#283=ORIENTED_EDGE('',*,*,#282,.T.);
#284=CARTESIAN_POINT('',(26.6700,-36.8300,8.5000));
#285=DIRECTION('',(-1.0,0.0,0.0));
#286=VECTOR('',#285,2.5400);
#287=LINE('',#284,#286);
#288=EDGE_CURVE('',#253,#251,#287,.T.);
#289=ORIENTED_EDGE('',*,*,#288,.T.);
#290=EDGE_LOOP('',(#271,#277,#283,#289));
#291=FACE_OUTER_BOUND('',#290,.T.);
#292=CARTESIAN_POINT('',(24.1300,-36.8300,8.5000));
#293=DIRECTION('',(0.0,0.0,-1.0));
#294=DIRECTION('',(1.0,0.0,0.0));
#295=AXIS2_PLACEMENT_3D('',#292,#293,#294);
#296=PLANE('',#295);
#297=ADVANCED_FACE('',(#291),#296,.T.);
#298=CARTESIAN_POINT('',(24.1300,-36.8300,11.0000));
#299=DIRECTION('',(1.0,0.0,0.0));
#300=VECTOR('',#299,2.5400);
#301=LINE('',#298,#300);
#302=EDGE_CURVE('',#259,#261,#301,.T.);
#303=ORIENTED_EDGE('',*,*,#302,.T.);
#304=CARTESIAN_POINT('',(26.6700,-36.8300,11.0000));
#305=DIRECTION('',(0.0,1.0,0.0));
#306=VECTOR('',#305,38.1000);
#307=LINE('',#304,#306);
#308=EDGE_CURVE('',#261,#265,#307,.T.);
#309=ORIENTED_EDGE('',*,*,#308,.T.);
#310=CARTESIAN_POINT('',(26.6700,1.2700,11.0000));
#311=DIRECTION('',(-1.0,0.0,0.0));
#312=VECTOR('',#311,2.5400);
#313=LINE('',#310,#312);
#314=EDGE_CURVE('',#265,#263,#313,.T.);
#315=ORIENTED_EDGE('',*,*,#314,.T.);
#316=CARTESIAN_POINT('',(24.1300,1.2700,11.0000));
#317=DIRECTION('',(0.0,-1.0,0.0));
#318=VECTOR('',#317,38.1000);
#319=LINE('',#316,#318);
#320=EDGE_CURVE('',#263,#259,#319,.T.);
#321=ORIENTED_EDGE('',*,*,#320,.T.);
#322=EDGE_LOOP('',(#303,#309,#315,#321));
#323=FACE_OUTER_BOUND('',#322,.T.);
#324=CARTESIAN_POINT('',(24.1300,-36.8300,11.0000));
#325=DIRECTION('',(0.0,0.0,1.0));
#326=DIRECTION('',(1.0,0.0,0.0));
#327=AXIS2_PLACEMENT_3D('',#324,#325,#326);
#328=PLANE('',#327);
#329=ADVANCED_FACE('',(#323),#328,.T.);
#330=ORIENTED_EDGE('',*,*,#288,.F.);
#331=CARTESIAN_POINT('',(26.6700,-36.8300,8.5000));
#332=DIRECTION('',(0.0,0.0,1.0));
#333=VECTOR('',#332,2.5000);
#334=LINE('',#331,#333);
#335=EDGE_CURVE('',#253,#261,#334,.T.);
#336=ORIENTED_EDGE('',*,*,#335,.T.);
#337=ORIENTED_EDGE('',*,*,#302,.F.);
#338=CARTESIAN_POINT('',(24.1300,-36.8300,11.0000));
#339=DIRECTION('',(0.0,0.0,-1.0));
#340=VECTOR('',#339,2.5000);
#341=LINE('',#338,#340);
#342=EDGE_CURVE('',#259,#251,#341,.T.);
#343=ORIENTED_EDGE('',*,*,#342,.T.);
#344=EDGE_LOOP('',(#330,#336,#337,#343));
#345=FACE_OUTER_BOUND('',#344,.T.);
#346=CARTESIAN_POINT('',(24.1300,-36.8300,8.5000));
#347=DIRECTION('',(0.0,-1.0,0.0));
#348=DIRECTION('',(1.0,0.0,0.0));
#349=AXIS2_PLACEMENT_3D('',#346,#347,#348);
#350=PLANE('',#349);
#351=ADVANCED_FACE('',(#345),#350,.T.);
#352=CARTESIAN_POINT('',(24.1300,1.2700,8.5000));
#353=DIRECTION('',(0.0,0.0,1.0));
#354=VECTOR('',#353,2.5000);
#355=LINE('',#352,#354);
#356=EDGE_CURVE('',#255,#263,#355,.T.);
#357=ORIENTED_EDGE('',*,*,#356,.T.);
#358=ORIENTED_EDGE('',*,*,#314,.F.);
#359=CARTESIAN_POINT('',(26.6700,1.2700,11.0000));
#360=DIRECTION('',(0.0,0.0,-1.0));
#361=VECTOR('',#360,2.5000);
#362=LINE('',#359,#361);
#363=EDGE_CURVE('',#265,#257,#362,.T.);
#364=ORIENTED_EDGE('',*,*,#363,.T.);
#365=ORIENTED_EDGE('',*,*,#276,.F.);
#366=EDGE_LOOP('',(#357,#358,#364,#365));
#367=FACE_OUTER_BOUND('',#366,.T.);
#368=CARTESIAN_POINT('',(24.1300,1.2700,8.5000));
#369=DIRECTION('',(0.0,1.0,0.0));
#370=DIRECTION('',(1.0,0.0,0.0));
#371=AXIS2_PLACEMENT_3D('',#368,#369,#370);
#372=PLANE('',#371);
#373=ADVANCED_FACE('',(#367),#372,.T.);
#374=ORIENTED_EDGE('',*,*,#342,.F.);
#375=ORIENTED_EDGE('',*,*,#320,.F.);
#376=ORIENTED_EDGE('',*,*,#356,.F.);
#377=ORIENTED_EDGE('',*,*,#270,.F.);
#378=EDGE_LOOP('',(#374,#375,#376,#377));
#379=FACE_OUTER_BOUND('',#378,.T.);
#380=CARTESIAN_POINT('',(24.1300,-36.8300,8.5000));
#381=DIRECTION('',(-1.0,0.0,0.0));
#382=DIRECTION('',(0.0,1.0,0.0));
#383=AXIS2_PLACEMENT_3D('',#380,#381,#382);
#384=PLANE('',#383);
#385=ADVANCED_FACE('',(#379),#384,.T.);
#386=ORIENTED_EDGE('',*,*,#282,.F.);
#387=ORIENTED_EDGE('',*,*,#363,.F.);
#388=ORIENTED_EDGE('',*,*,#308,.F.);
#389=ORIENTED_EDGE('',*,*,#335,.F.);
#390=EDGE_LOOP('',(#386,#387,#388,#389));
#391=FACE_OUTER_BOUND('',#390,.T.);
#392=CARTESIAN_POINT('',(26.6700,-36.8300,8.5000));
#393=DIRECTION('',(1.0,0.0,0.0));
#394=DIRECTION('',(0.0,1.0,0.0));
#395=AXIS2_PLACEMENT_3D('',#392,#393,#394);
#396=PLANE('',#395);
#397=ADVANCED_FACE('',(#391),#396,.T.);
#398=CLOSED_SHELL('',(#297,#329,#351,#373,#385,#397));
#399=MANIFOLD_SOLID_BREP('box',#398);
#400=CARTESIAN_POINT('',(-1.4500,-43.0000,11.0000));
#401=VERTEX_POINT('',#400);
#402=CARTESIAN_POINT('',(26.8500,-43.0000,11.0000));
#403=VERTEX_POINT('',#402);
#404=CARTESIAN_POINT('',(-1.4500,8.5000,11.0000));
#405=VERTEX_POINT('',#404);
#406=CARTESIAN_POINT('',(26.8500,8.5000,11.0000));
#407=VERTEX_POINT('',#406);
#408=CARTESIAN_POINT('',(-1.4500,-43.0000,12.6000));
#409=VERTEX_POINT('',#408);
#410=CARTESIAN_POINT('',(26.8500,-43.0000,12.6000));
#411=VERTEX_POINT('',#410);
#412=CARTESIAN_POINT('',(-1.4500,8.5000,12.6000));
#413=VERTEX_POINT('',#412);
#414=CARTESIAN_POINT('',(26.8500,8.5000,12.6000));
#415=VERTEX_POINT('',#414);
#416=CARTESIAN_POINT('',(-1.4500,-43.0000,11.0000));
#417=DIRECTION('',(0.0,1.0,0.0));
#418=VECTOR('',#417,51.5000);
#419=LINE('',#416,#418);
#420=EDGE_CURVE('',#401,#405,#419,.T.);
#421=ORIENTED_EDGE('',*,*,#420,.T.);
#422=CARTESIAN_POINT('',(-1.4500,8.5000,11.0000));
#423=DIRECTION('',(1.0,0.0,0.0));
#424=VECTOR('',#423,28.3000);
#425=LINE('',#422,#424);
#426=EDGE_CURVE('',#405,#407,#425,.T.);
#427=ORIENTED_EDGE('',*,*,#426,.T.);
#428=CARTESIAN_POINT('',(26.8500,8.5000,11.0000));
#429=DIRECTION('',(0.0,-1.0,0.0));
#430=VECTOR('',#429,51.5000);
#431=LINE('',#428,#430);
#432=EDGE_CURVE('',#407,#403,#431,.T.);
#433=ORIENTED_EDGE('',*,*,#432,.T.);
#434=CARTESIAN_POINT('',(26.8500,-43.0000,11.0000));
#435=DIRECTION('',(-1.0,0.0,0.0));
#436=VECTOR('',#435,28.3000);
#437=LINE('',#434,#436);
#438=EDGE_CURVE('',#403,#401,#437,.T.);
#439=ORIENTED_EDGE('',*,*,#438,.T.);
#440=EDGE_LOOP('',(#421,#427,#433,#439));
#441=FACE_OUTER_BOUND('',#440,.T.);
#442=CARTESIAN_POINT('',(-1.4500,-43.0000,11.0000));
#443=DIRECTION('',(0.0,0.0,-1.0));
#444=DIRECTION('',(1.0,0.0,0.0));
#445=AXIS2_PLACEMENT_3D('',#442,#443,#444);
#446=PLANE('',#445);
#447=ADVANCED_FACE('',(#441),#446,.T.);
#448=CARTESIAN_POINT('',(-1.4500,-43.0000,12.6000));
#449=DIRECTION('',(1.0,0.0,0.0));
#450=VECTOR('',#449,28.3000);
#451=LINE('',#448,#450);
#452=EDGE_CURVE('',#409,#411,#451,.T.);
#453=ORIENTED_EDGE('',*,*,#452,.T.);
#454=CARTESIAN_POINT('',(26.8500,-43.0000,12.6000));
#455=DIRECTION('',(0.0,1.0,0.0));
#456=VECTOR('',#455,51.5000);
#457=LINE('',#454,#456);
#458=EDGE_CURVE('',#411,#415,#457,.T.);
#459=ORIENTED_EDGE('',*,*,#458,.T.);
#460=CARTESIAN_POINT('',(26.8500,8.5000,12.6000));
#461=DIRECTION('',(-1.0,0.0,0.0));
#462=VECTOR('',#461,28.3000);
#463=LINE('',#460,#462);
#464=EDGE_CURVE('',#415,#413,#463,.T.);
#465=ORIENTED_EDGE('',*,*,#464,.T.);
#466=CARTESIAN_POINT('',(-1.4500,8.5000,12.6000));
#467=DIRECTION('',(0.0,-1.0,0.0));
#468=VECTOR('',#467,51.5000);
#469=LINE('',#466,#468);
#470=EDGE_CURVE('',#413,#409,#469,.T.);
#471=ORIENTED_EDGE('',*,*,#470,.T.);
#472=EDGE_LOOP('',(#453,#459,#465,#471));
#473=FACE_OUTER_BOUND('',#472,.T.);
#474=CARTESIAN_POINT('',(-1.4500,-43.0000,12.6000));
#475=DIRECTION('',(0.0,0.0,1.0));
#476=DIRECTION('',(1.0,0.0,0.0));
#477=AXIS2_PLACEMENT_3D('',#474,#475,#476);
#478=PLANE('',#477);
#479=ADVANCED_FACE('',(#473),#478,.T.);
#480=ORIENTED_EDGE('',*,*,#438,.F.);
#481=CARTESIAN_POINT('',(26.8500,-43.0000,11.0000));
#482=DIRECTION('',(0.0,0.0,1.0));
#483=VECTOR('',#482,1.6000);
#484=LINE('',#481,#483);
#485=EDGE_CURVE('',#403,#411,#484,.T.);
#486=ORIENTED_EDGE('',*,*,#485,.T.);
#487=ORIENTED_EDGE('',*,*,#452,.F.);
#488=CARTESIAN_POINT('',(-1.4500,-43.0000,12.6000));
#489=DIRECTION('',(0.0,0.0,-1.0));
#490=VECTOR('',#489,1.6000);
#491=LINE('',#488,#490);
#492=EDGE_CURVE('',#409,#401,#491,.T.);
#493=ORIENTED_EDGE('',*,*,#492,.T.);
#494=EDGE_LOOP('',(#480,#486,#487,#493));
#495=FACE_OUTER_BOUND('',#494,.T.);
#496=CARTESIAN_POINT('',(-1.4500,-43.0000,11.0000));
#497=DIRECTION('',(0.0,-1.0,0.0));
#498=DIRECTION('',(1.0,0.0,0.0));
#499=AXIS2_PLACEMENT_3D('',#496,#497,#498);
#500=PLANE('',#499);
#501=ADVANCED_FACE('',(#495),#500,.T.);
#502=CARTESIAN_POINT('',(-1.4500,8.5000,11.0000));
#503=DIRECTION('',(0.0,0.0,1.0));
#504=VECTOR('',#503,1.6000);
#505=LINE('',#502,#504);
#506=EDGE_CURVE('',#405,#413,#505,.T.);
#507=ORIENTED_EDGE('',*,*,#506,.T.);
#508=ORIENTED_EDGE('',*,*,#464,.F.);
#509=CARTESIAN_POINT('',(26.8500,8.5000,12.6000));
#510=DIRECTION('',(0.0,0.0,-1.0));
#511=VECTOR('',#510,1.6000);
#512=LINE('',#509,#511);
#513=EDGE_CURVE('',#415,#407,#512,.T.);
#514=ORIENTED_EDGE('',*,*,#513,.T.);
#515=ORIENTED_EDGE('',*,*,#426,.F.);
#516=EDGE_LOOP('',(#507,#508,#514,#515));
#517=FACE_OUTER_BOUND('',#516,.T.);
#518=CARTESIAN_POINT('',(-1.4500,8.5000,11.0000));
#519=DIRECTION('',(0.0,1.0,0.0));
#520=DIRECTION('',(1.0,0.0,0.0));
#521=AXIS2_PLACEMENT_3D('',#518,#519,#520);
#522=PLANE('',#521);
#523=ADVANCED_FACE('',(#517),#522,.T.);
#524=ORIENTED_EDGE('',*,*,#492,.F.);
#525=ORIENTED_EDGE('',*,*,#470,.F.);
#526=ORIENTED_EDGE('',*,*,#506,.F.);
#527=ORIENTED_EDGE('',*,*,#420,.F.);
#528=EDGE_LOOP('',(#524,#525,#526,#527));
#529=FACE_OUTER_BOUND('',#528,.T.);
#530=CARTESIAN_POINT('',(-1.4500,-43.0000,11.0000));
#531=DIRECTION('',(-1.0,0.0,0.0));
#532=DIRECTION('',(0.0,1.0,0.0));
#533=AXIS2_PLACEMENT_3D('',#530,#531,#532);
#534=PLANE('',#533);
#535=ADVANCED_FACE('',(#529),#534,.T.);
#536=ORIENTED_EDGE('',*,*,#432,.F.);
#537=ORIENTED_EDGE('',*,*,#513,.F.);
#538=ORIENTED_EDGE('',*,*,#458,.F.);
#539=ORIENTED_EDGE('',*,*,#485,.F.);
#540=EDGE_LOOP('',(#536,#537,#538,#539));
#541=FACE_OUTER_BOUND('',#540,.T.);
#542=CARTESIAN_POINT('',(26.8500,-43.0000,11.0000));
#543=DIRECTION('',(1.0,0.0,0.0));
#544=DIRECTION('',(0.0,1.0,0.0));
#545=AXIS2_PLACEMENT_3D('',#542,#543,#544);
#546=PLANE('',#545);
#547=ADVANCED_FACE('',(#541),#546,.T.);
#548=CLOSED_SHELL('',(#447,#479,#501,#523,#535,#547));
#549=MANIFOLD_SOLID_BREP('box',#548);
#550=CARTESIAN_POINT('',(3.7000,-17.0000,12.6000));
#551=VERTEX_POINT('',#550);
#552=CARTESIAN_POINT('',(21.7000,-17.0000,12.6000));
#553=VERTEX_POINT('',#552);
#554=CARTESIAN_POINT('',(3.7000,8.5000,12.6000));
#555=VERTEX_POINT('',#554);
#556=CARTESIAN_POINT('',(21.7000,8.5000,12.6000));
#557=VERTEX_POINT('',#556);
#558=CARTESIAN_POINT('',(3.7000,-17.0000,15.8000));
#559=VERTEX_POINT('',#558);
#560=CARTESIAN_POINT('',(21.7000,-17.0000,15.8000));
#561=VERTEX_POINT('',#560);
#562=CARTESIAN_POINT('',(3.7000,8.5000,15.8000));
#563=VERTEX_POINT('',#562);
#564=CARTESIAN_POINT('',(21.7000,8.5000,15.8000));
#565=VERTEX_POINT('',#564);
#566=CARTESIAN_POINT('',(3.7000,-17.0000,12.6000));
#567=DIRECTION('',(0.0,1.0,0.0));
#568=VECTOR('',#567,25.5000);
#569=LINE('',#566,#568);
#570=EDGE_CURVE('',#551,#555,#569,.T.);
#571=ORIENTED_EDGE('',*,*,#570,.T.);
#572=CARTESIAN_POINT('',(3.7000,8.5000,12.6000));
#573=DIRECTION('',(1.0,0.0,0.0));
#574=VECTOR('',#573,18.0000);
#575=LINE('',#572,#574);
#576=EDGE_CURVE('',#555,#557,#575,.T.);
#577=ORIENTED_EDGE('',*,*,#576,.T.);
#578=CARTESIAN_POINT('',(21.7000,8.5000,12.6000));
#579=DIRECTION('',(0.0,-1.0,0.0));
#580=VECTOR('',#579,25.5000);
#581=LINE('',#578,#580);
#582=EDGE_CURVE('',#557,#553,#581,.T.);
#583=ORIENTED_EDGE('',*,*,#582,.T.);
#584=CARTESIAN_POINT('',(21.7000,-17.0000,12.6000));
#585=DIRECTION('',(-1.0,0.0,0.0));
#586=VECTOR('',#585,18.0000);
#587=LINE('',#584,#586);
#588=EDGE_CURVE('',#553,#551,#587,.T.);
#589=ORIENTED_EDGE('',*,*,#588,.T.);
#590=EDGE_LOOP('',(#571,#577,#583,#589));
#591=FACE_OUTER_BOUND('',#590,.T.);
#592=CARTESIAN_POINT('',(3.7000,-17.0000,12.6000));
#593=DIRECTION('',(0.0,0.0,-1.0));
#594=DIRECTION('',(1.0,0.0,0.0));
#595=AXIS2_PLACEMENT_3D('',#592,#593,#594);
#596=PLANE('',#595);
#597=ADVANCED_FACE('',(#591),#596,.T.);
#598=CARTESIAN_POINT('',(3.7000,-17.0000,15.8000));
#599=DIRECTION('',(1.0,0.0,0.0));
#600=VECTOR('',#599,18.0000);
#601=LINE('',#598,#600);
#602=EDGE_CURVE('',#559,#561,#601,.T.);
#603=ORIENTED_EDGE('',*,*,#602,.T.);
#604=CARTESIAN_POINT('',(21.7000,-17.0000,15.8000));
#605=DIRECTION('',(0.0,1.0,0.0));
#606=VECTOR('',#605,25.5000);
#607=LINE('',#604,#606);
#608=EDGE_CURVE('',#561,#565,#607,.T.);
#609=ORIENTED_EDGE('',*,*,#608,.T.);
#610=CARTESIAN_POINT('',(21.7000,8.5000,15.8000));
#611=DIRECTION('',(-1.0,0.0,0.0));
#612=VECTOR('',#611,18.0000);
#613=LINE('',#610,#612);
#614=EDGE_CURVE('',#565,#563,#613,.T.);
#615=ORIENTED_EDGE('',*,*,#614,.T.);
#616=CARTESIAN_POINT('',(3.7000,8.5000,15.8000));
#617=DIRECTION('',(0.0,-1.0,0.0));
#618=VECTOR('',#617,25.5000);
#619=LINE('',#616,#618);
#620=EDGE_CURVE('',#563,#559,#619,.T.);
#621=ORIENTED_EDGE('',*,*,#620,.T.);
#622=EDGE_LOOP('',(#603,#609,#615,#621));
#623=FACE_OUTER_BOUND('',#622,.T.);
#624=CARTESIAN_POINT('',(3.7000,-17.0000,15.8000));
#625=DIRECTION('',(0.0,0.0,1.0));
#626=DIRECTION('',(1.0,0.0,0.0));
#627=AXIS2_PLACEMENT_3D('',#624,#625,#626);
#628=PLANE('',#627);
#629=ADVANCED_FACE('',(#623),#628,.T.);
#630=ORIENTED_EDGE('',*,*,#588,.F.);
#631=CARTESIAN_POINT('',(21.7000,-17.0000,12.6000));
#632=DIRECTION('',(0.0,0.0,1.0));
#633=VECTOR('',#632,3.2000);
#634=LINE('',#631,#633);
#635=EDGE_CURVE('',#553,#561,#634,.T.);
#636=ORIENTED_EDGE('',*,*,#635,.T.);
#637=ORIENTED_EDGE('',*,*,#602,.F.);
#638=CARTESIAN_POINT('',(3.7000,-17.0000,15.8000));
#639=DIRECTION('',(0.0,0.0,-1.0));
#640=VECTOR('',#639,3.2000);
#641=LINE('',#638,#640);
#642=EDGE_CURVE('',#559,#551,#641,.T.);
#643=ORIENTED_EDGE('',*,*,#642,.T.);
#644=EDGE_LOOP('',(#630,#636,#637,#643));
#645=FACE_OUTER_BOUND('',#644,.T.);
#646=CARTESIAN_POINT('',(3.7000,-17.0000,12.6000));
#647=DIRECTION('',(0.0,-1.0,0.0));
#648=DIRECTION('',(1.0,0.0,0.0));
#649=AXIS2_PLACEMENT_3D('',#646,#647,#648);
#650=PLANE('',#649);
#651=ADVANCED_FACE('',(#645),#650,.T.);
#652=CARTESIAN_POINT('',(3.7000,8.5000,12.6000));
#653=DIRECTION('',(0.0,0.0,1.0));
#654=VECTOR('',#653,3.2000);
#655=LINE('',#652,#654);
#656=EDGE_CURVE('',#555,#563,#655,.T.);
#657=ORIENTED_EDGE('',*,*,#656,.T.);
#658=ORIENTED_EDGE('',*,*,#614,.F.);
#659=CARTESIAN_POINT('',(21.7000,8.5000,15.8000));
#660=DIRECTION('',(0.0,0.0,-1.0));
#661=VECTOR('',#660,3.2000);
#662=LINE('',#659,#661);
#663=EDGE_CURVE('',#565,#557,#662,.T.);
#664=ORIENTED_EDGE('',*,*,#663,.T.);
#665=ORIENTED_EDGE('',*,*,#576,.F.);
#666=EDGE_LOOP('',(#657,#658,#664,#665));
#667=FACE_OUTER_BOUND('',#666,.T.);
#668=CARTESIAN_POINT('',(3.7000,8.5000,12.6000));
#669=DIRECTION('',(0.0,1.0,0.0));
#670=DIRECTION('',(1.0,0.0,0.0));
#671=AXIS2_PLACEMENT_3D('',#668,#669,#670);
#672=PLANE('',#671);
#673=ADVANCED_FACE('',(#667),#672,.T.);
#674=ORIENTED_EDGE('',*,*,#642,.F.);
#675=ORIENTED_EDGE('',*,*,#620,.F.);
#676=ORIENTED_EDGE('',*,*,#656,.F.);
#677=ORIENTED_EDGE('',*,*,#570,.F.);
#678=EDGE_LOOP('',(#674,#675,#676,#677));
#679=FACE_OUTER_BOUND('',#678,.T.);
#680=CARTESIAN_POINT('',(3.7000,-17.0000,12.6000));
#681=DIRECTION('',(-1.0,0.0,0.0));
#682=DIRECTION('',(0.0,1.0,0.0));
#683=AXIS2_PLACEMENT_3D('',#680,#681,#682);
#684=PLANE('',#683);
#685=ADVANCED_FACE('',(#679),#684,.T.);
#686=ORIENTED_EDGE('',*,*,#582,.F.);
#687=ORIENTED_EDGE('',*,*,#663,.F.);
#688=ORIENTED_EDGE('',*,*,#608,.F.);
#689=ORIENTED_EDGE('',*,*,#635,.F.);
#690=EDGE_LOOP('',(#686,#687,#688,#689));
#691=FACE_OUTER_BOUND('',#690,.T.);
#692=CARTESIAN_POINT('',(21.7000,-17.0000,12.6000));
#693=DIRECTION('',(1.0,0.0,0.0));
#694=DIRECTION('',(0.0,1.0,0.0));
#695=AXIS2_PLACEMENT_3D('',#692,#693,#694);
#696=PLANE('',#695);
#697=ADVANCED_FACE('',(#691),#696,.T.);
#698=CLOSED_SHELL('',(#597,#629,#651,#673,#685,#697));
#699=MANIFOLD_SOLID_BREP('box',#698);
#700=CARTESIAN_POINT('',(8.7000,-44.0000,12.6000));
#701=VERTEX_POINT('',#700);
#702=CARTESIAN_POINT('',(16.7000,-44.0000,12.6000));
#703=VERTEX_POINT('',#702);
#704=CARTESIAN_POINT('',(8.7000,-38.0000,12.6000));
#705=VERTEX_POINT('',#704);
#706=CARTESIAN_POINT('',(16.7000,-38.0000,12.6000));
#707=VERTEX_POINT('',#706);
#708=CARTESIAN_POINT('',(8.7000,-44.0000,15.4000));
#709=VERTEX_POINT('',#708);
#710=CARTESIAN_POINT('',(16.7000,-44.0000,15.4000));
#711=VERTEX_POINT('',#710);
#712=CARTESIAN_POINT('',(8.7000,-38.0000,15.4000));
#713=VERTEX_POINT('',#712);
#714=CARTESIAN_POINT('',(16.7000,-38.0000,15.4000));
#715=VERTEX_POINT('',#714);
#716=CARTESIAN_POINT('',(8.7000,-44.0000,12.6000));
#717=DIRECTION('',(0.0,1.0,0.0));
#718=VECTOR('',#717,6.0000);
#719=LINE('',#716,#718);
#720=EDGE_CURVE('',#701,#705,#719,.T.);
#721=ORIENTED_EDGE('',*,*,#720,.T.);
#722=CARTESIAN_POINT('',(8.7000,-38.0000,12.6000));
#723=DIRECTION('',(1.0,0.0,0.0));
#724=VECTOR('',#723,8.0000);
#725=LINE('',#722,#724);
#726=EDGE_CURVE('',#705,#707,#725,.T.);
#727=ORIENTED_EDGE('',*,*,#726,.T.);
#728=CARTESIAN_POINT('',(16.7000,-38.0000,12.6000));
#729=DIRECTION('',(0.0,-1.0,0.0));
#730=VECTOR('',#729,6.0000);
#731=LINE('',#728,#730);
#732=EDGE_CURVE('',#707,#703,#731,.T.);
#733=ORIENTED_EDGE('',*,*,#732,.T.);
#734=CARTESIAN_POINT('',(16.7000,-44.0000,12.6000));
#735=DIRECTION('',(-1.0,0.0,0.0));
#736=VECTOR('',#735,8.0000);
#737=LINE('',#734,#736);
#738=EDGE_CURVE('',#703,#701,#737,.T.);
#739=ORIENTED_EDGE('',*,*,#738,.T.);
#740=EDGE_LOOP('',(#721,#727,#733,#739));
#741=FACE_OUTER_BOUND('',#740,.T.);
#742=CARTESIAN_POINT('',(8.7000,-44.0000,12.6000));
#743=DIRECTION('',(0.0,0.0,-1.0));
#744=DIRECTION('',(1.0,0.0,0.0));
#745=AXIS2_PLACEMENT_3D('',#742,#743,#744);
#746=PLANE('',#745);
#747=ADVANCED_FACE('',(#741),#746,.T.);
#748=CARTESIAN_POINT('',(8.7000,-44.0000,15.4000));
#749=DIRECTION('',(1.0,0.0,0.0));
#750=VECTOR('',#749,8.0000);
#751=LINE('',#748,#750);
#752=EDGE_CURVE('',#709,#711,#751,.T.);
#753=ORIENTED_EDGE('',*,*,#752,.T.);
#754=CARTESIAN_POINT('',(16.7000,-44.0000,15.4000));
#755=DIRECTION('',(0.0,1.0,0.0));
#756=VECTOR('',#755,6.0000);
#757=LINE('',#754,#756);
#758=EDGE_CURVE('',#711,#715,#757,.T.);
#759=ORIENTED_EDGE('',*,*,#758,.T.);
#760=CARTESIAN_POINT('',(16.7000,-38.0000,15.4000));
#761=DIRECTION('',(-1.0,0.0,0.0));
#762=VECTOR('',#761,8.0000);
#763=LINE('',#760,#762);
#764=EDGE_CURVE('',#715,#713,#763,.T.);
#765=ORIENTED_EDGE('',*,*,#764,.T.);
#766=CARTESIAN_POINT('',(8.7000,-38.0000,15.4000));
#767=DIRECTION('',(0.0,-1.0,0.0));
#768=VECTOR('',#767,6.0000);
#769=LINE('',#766,#768);
#770=EDGE_CURVE('',#713,#709,#769,.T.);
#771=ORIENTED_EDGE('',*,*,#770,.T.);
#772=EDGE_LOOP('',(#753,#759,#765,#771));
#773=FACE_OUTER_BOUND('',#772,.T.);
#774=CARTESIAN_POINT('',(8.7000,-44.0000,15.4000));
#775=DIRECTION('',(0.0,0.0,1.0));
#776=DIRECTION('',(1.0,0.0,0.0));
#777=AXIS2_PLACEMENT_3D('',#774,#775,#776);
#778=PLANE('',#777);
#779=ADVANCED_FACE('',(#773),#778,.T.);
#780=ORIENTED_EDGE('',*,*,#738,.F.);
#781=CARTESIAN_POINT('',(16.7000,-44.0000,12.6000));
#782=DIRECTION('',(0.0,0.0,1.0));
#783=VECTOR('',#782,2.8000);
#784=LINE('',#781,#783);
#785=EDGE_CURVE('',#703,#711,#784,.T.);
#786=ORIENTED_EDGE('',*,*,#785,.T.);
#787=ORIENTED_EDGE('',*,*,#752,.F.);
#788=CARTESIAN_POINT('',(8.7000,-44.0000,15.4000));
#789=DIRECTION('',(0.0,0.0,-1.0));
#790=VECTOR('',#789,2.8000);
#791=LINE('',#788,#790);
#792=EDGE_CURVE('',#709,#701,#791,.T.);
#793=ORIENTED_EDGE('',*,*,#792,.T.);
#794=EDGE_LOOP('',(#780,#786,#787,#793));
#795=FACE_OUTER_BOUND('',#794,.T.);
#796=CARTESIAN_POINT('',(8.7000,-44.0000,12.6000));
#797=DIRECTION('',(0.0,-1.0,0.0));
#798=DIRECTION('',(1.0,0.0,0.0));
#799=AXIS2_PLACEMENT_3D('',#796,#797,#798);
#800=PLANE('',#799);
#801=ADVANCED_FACE('',(#795),#800,.T.);
#802=CARTESIAN_POINT('',(8.7000,-38.0000,12.6000));
#803=DIRECTION('',(0.0,0.0,1.0));
#804=VECTOR('',#803,2.8000);
#805=LINE('',#802,#804);
#806=EDGE_CURVE('',#705,#713,#805,.T.);
#807=ORIENTED_EDGE('',*,*,#806,.T.);
#808=ORIENTED_EDGE('',*,*,#764,.F.);
#809=CARTESIAN_POINT('',(16.7000,-38.0000,15.4000));
#810=DIRECTION('',(0.0,0.0,-1.0));
#811=VECTOR('',#810,2.8000);
#812=LINE('',#809,#811);
#813=EDGE_CURVE('',#715,#707,#812,.T.);
#814=ORIENTED_EDGE('',*,*,#813,.T.);
#815=ORIENTED_EDGE('',*,*,#726,.F.);
#816=EDGE_LOOP('',(#807,#808,#814,#815));
#817=FACE_OUTER_BOUND('',#816,.T.);
#818=CARTESIAN_POINT('',(8.7000,-38.0000,12.6000));
#819=DIRECTION('',(0.0,1.0,0.0));
#820=DIRECTION('',(1.0,0.0,0.0));
#821=AXIS2_PLACEMENT_3D('',#818,#819,#820);
#822=PLANE('',#821);
#823=ADVANCED_FACE('',(#817),#822,.T.);
#824=ORIENTED_EDGE('',*,*,#792,.F.);
#825=ORIENTED_EDGE('',*,*,#770,.F.);
#826=ORIENTED_EDGE('',*,*,#806,.F.);
#827=ORIENTED_EDGE('',*,*,#720,.F.);
#828=EDGE_LOOP('',(#824,#825,#826,#827));
#829=FACE_OUTER_BOUND('',#828,.T.);
#830=CARTESIAN_POINT('',(8.7000,-44.0000,12.6000));
#831=DIRECTION('',(-1.0,0.0,0.0));
#832=DIRECTION('',(0.0,1.0,0.0));
#833=AXIS2_PLACEMENT_3D('',#830,#831,#832);
#834=PLANE('',#833);
#835=ADVANCED_FACE('',(#829),#834,.T.);
#836=ORIENTED_EDGE('',*,*,#732,.F.);
#837=ORIENTED_EDGE('',*,*,#813,.F.);
#838=ORIENTED_EDGE('',*,*,#758,.F.);
#839=ORIENTED_EDGE('',*,*,#785,.F.);
#840=EDGE_LOOP('',(#836,#837,#838,#839));
#841=FACE_OUTER_BOUND('',#840,.T.);
#842=CARTESIAN_POINT('',(16.7000,-44.0000,12.6000));
#843=DIRECTION('',(1.0,0.0,0.0));
#844=DIRECTION('',(0.0,1.0,0.0));
#845=AXIS2_PLACEMENT_3D('',#842,#843,#844);
#846=PLANE('',#845);
#847=ADVANCED_FACE('',(#841),#846,.T.);
#848=CLOSED_SHELL('',(#747,#779,#801,#823,#835,#847));
#849=MANIFOLD_SOLID_BREP('box',#848);
#850=CARTESIAN_POINT('',(1.5000,-40.0000,12.6000));
#851=VERTEX_POINT('',#850);
#852=CARTESIAN_POINT('',(5.5000,-40.0000,12.6000));
#853=VERTEX_POINT('',#852);
#854=CARTESIAN_POINT('',(1.5000,-37.0000,12.6000));
#855=VERTEX_POINT('',#854);
#856=CARTESIAN_POINT('',(5.5000,-37.0000,12.6000));
#857=VERTEX_POINT('',#856);
#858=CARTESIAN_POINT('',(1.5000,-40.0000,14.1000));
#859=VERTEX_POINT('',#858);
#860=CARTESIAN_POINT('',(5.5000,-40.0000,14.1000));
#861=VERTEX_POINT('',#860);
#862=CARTESIAN_POINT('',(1.5000,-37.0000,14.1000));
#863=VERTEX_POINT('',#862);
#864=CARTESIAN_POINT('',(5.5000,-37.0000,14.1000));
#865=VERTEX_POINT('',#864);
#866=CARTESIAN_POINT('',(1.5000,-40.0000,12.6000));
#867=DIRECTION('',(0.0,1.0,0.0));
#868=VECTOR('',#867,3.0000);
#869=LINE('',#866,#868);
#870=EDGE_CURVE('',#851,#855,#869,.T.);
#871=ORIENTED_EDGE('',*,*,#870,.T.);
#872=CARTESIAN_POINT('',(1.5000,-37.0000,12.6000));
#873=DIRECTION('',(1.0,0.0,0.0));
#874=VECTOR('',#873,4.0000);
#875=LINE('',#872,#874);
#876=EDGE_CURVE('',#855,#857,#875,.T.);
#877=ORIENTED_EDGE('',*,*,#876,.T.);
#878=CARTESIAN_POINT('',(5.5000,-37.0000,12.6000));
#879=DIRECTION('',(0.0,-1.0,0.0));
#880=VECTOR('',#879,3.0000);
#881=LINE('',#878,#880);
#882=EDGE_CURVE('',#857,#853,#881,.T.);
#883=ORIENTED_EDGE('',*,*,#882,.T.);
#884=CARTESIAN_POINT('',(5.5000,-40.0000,12.6000));
#885=DIRECTION('',(-1.0,0.0,0.0));
#886=VECTOR('',#885,4.0000);
#887=LINE('',#884,#886);
#888=EDGE_CURVE('',#853,#851,#887,.T.);
#889=ORIENTED_EDGE('',*,*,#888,.T.);
#890=EDGE_LOOP('',(#871,#877,#883,#889));
#891=FACE_OUTER_BOUND('',#890,.T.);
#892=CARTESIAN_POINT('',(1.5000,-40.0000,12.6000));
#893=DIRECTION('',(0.0,0.0,-1.0));
#894=DIRECTION('',(1.0,0.0,0.0));
#895=AXIS2_PLACEMENT_3D('',#892,#893,#894);
#896=PLANE('',#895);
#897=ADVANCED_FACE('',(#891),#896,.T.);
#898=CARTESIAN_POINT('',(1.5000,-40.0000,14.1000));
#899=DIRECTION('',(1.0,0.0,0.0));
#900=VECTOR('',#899,4.0000);
#901=LINE('',#898,#900);
#902=EDGE_CURVE('',#859,#861,#901,.T.);
#903=ORIENTED_EDGE('',*,*,#902,.T.);
#904=CARTESIAN_POINT('',(5.5000,-40.0000,14.1000));
#905=DIRECTION('',(0.0,1.0,0.0));
#906=VECTOR('',#905,3.0000);
#907=LINE('',#904,#906);
#908=EDGE_CURVE('',#861,#865,#907,.T.);
#909=ORIENTED_EDGE('',*,*,#908,.T.);
#910=CARTESIAN_POINT('',(5.5000,-37.0000,14.1000));
#911=DIRECTION('',(-1.0,0.0,0.0));
#912=VECTOR('',#911,4.0000);
#913=LINE('',#910,#912);
#914=EDGE_CURVE('',#865,#863,#913,.T.);
#915=ORIENTED_EDGE('',*,*,#914,.T.);
#916=CARTESIAN_POINT('',(1.5000,-37.0000,14.1000));
#917=DIRECTION('',(0.0,-1.0,0.0));
#918=VECTOR('',#917,3.0000);
#919=LINE('',#916,#918);
#920=EDGE_CURVE('',#863,#859,#919,.T.);
#921=ORIENTED_EDGE('',*,*,#920,.T.);
#922=EDGE_LOOP('',(#903,#909,#915,#921));
#923=FACE_OUTER_BOUND('',#922,.T.);
#924=CARTESIAN_POINT('',(1.5000,-40.0000,14.1000));
#925=DIRECTION('',(0.0,0.0,1.0));
#926=DIRECTION('',(1.0,0.0,0.0));
#927=AXIS2_PLACEMENT_3D('',#924,#925,#926);
#928=PLANE('',#927);
#929=ADVANCED_FACE('',(#923),#928,.T.);
#930=ORIENTED_EDGE('',*,*,#888,.F.);
#931=CARTESIAN_POINT('',(5.5000,-40.0000,12.6000));
#932=DIRECTION('',(0.0,0.0,1.0));
#933=VECTOR('',#932,1.5000);
#934=LINE('',#931,#933);
#935=EDGE_CURVE('',#853,#861,#934,.T.);
#936=ORIENTED_EDGE('',*,*,#935,.T.);
#937=ORIENTED_EDGE('',*,*,#902,.F.);
#938=CARTESIAN_POINT('',(1.5000,-40.0000,14.1000));
#939=DIRECTION('',(0.0,0.0,-1.0));
#940=VECTOR('',#939,1.5000);
#941=LINE('',#938,#940);
#942=EDGE_CURVE('',#859,#851,#941,.T.);
#943=ORIENTED_EDGE('',*,*,#942,.T.);
#944=EDGE_LOOP('',(#930,#936,#937,#943));
#945=FACE_OUTER_BOUND('',#944,.T.);
#946=CARTESIAN_POINT('',(1.5000,-40.0000,12.6000));
#947=DIRECTION('',(0.0,-1.0,0.0));
#948=DIRECTION('',(1.0,0.0,0.0));
#949=AXIS2_PLACEMENT_3D('',#946,#947,#948);
#950=PLANE('',#949);
#951=ADVANCED_FACE('',(#945),#950,.T.);
#952=CARTESIAN_POINT('',(1.5000,-37.0000,12.6000));
#953=DIRECTION('',(0.0,0.0,1.0));
#954=VECTOR('',#953,1.5000);
#955=LINE('',#952,#954);
#956=EDGE_CURVE('',#855,#863,#955,.T.);
#957=ORIENTED_EDGE('',*,*,#956,.T.);
#958=ORIENTED_EDGE('',*,*,#914,.F.);
#959=CARTESIAN_POINT('',(5.5000,-37.0000,14.1000));
#960=DIRECTION('',(0.0,0.0,-1.0));
#961=VECTOR('',#960,1.5000);
#962=LINE('',#959,#961);
#963=EDGE_CURVE('',#865,#857,#962,.T.);
#964=ORIENTED_EDGE('',*,*,#963,.T.);
#965=ORIENTED_EDGE('',*,*,#876,.F.);
#966=EDGE_LOOP('',(#957,#958,#964,#965));
#967=FACE_OUTER_BOUND('',#966,.T.);
#968=CARTESIAN_POINT('',(1.5000,-37.0000,12.6000));
#969=DIRECTION('',(0.0,1.0,0.0));
#970=DIRECTION('',(1.0,0.0,0.0));
#971=AXIS2_PLACEMENT_3D('',#968,#969,#970);
#972=PLANE('',#971);
#973=ADVANCED_FACE('',(#967),#972,.T.);
#974=ORIENTED_EDGE('',*,*,#942,.F.);
#975=ORIENTED_EDGE('',*,*,#920,.F.);
#976=ORIENTED_EDGE('',*,*,#956,.F.);
#977=ORIENTED_EDGE('',*,*,#870,.F.);
#978=EDGE_LOOP('',(#974,#975,#976,#977));
#979=FACE_OUTER_BOUND('',#978,.T.);
#980=CARTESIAN_POINT('',(1.5000,-40.0000,12.6000));
#981=DIRECTION('',(-1.0,0.0,0.0));
#982=DIRECTION('',(0.0,1.0,0.0));
#983=AXIS2_PLACEMENT_3D('',#980,#981,#982);
#984=PLANE('',#983);
#985=ADVANCED_FACE('',(#979),#984,.T.);
#986=ORIENTED_EDGE('',*,*,#882,.F.);
#987=ORIENTED_EDGE('',*,*,#963,.F.);
#988=ORIENTED_EDGE('',*,*,#908,.F.);
#989=ORIENTED_EDGE('',*,*,#935,.F.);
#990=EDGE_LOOP('',(#986,#987,#988,#989));
#991=FACE_OUTER_BOUND('',#990,.T.);
#992=CARTESIAN_POINT('',(5.5000,-40.0000,12.6000));
#993=DIRECTION('',(1.0,0.0,0.0));
#994=DIRECTION('',(0.0,1.0,0.0));
#995=AXIS2_PLACEMENT_3D('',#992,#993,#994);
#996=PLANE('',#995);
#997=ADVANCED_FACE('',(#991),#996,.T.);
#998=CLOSED_SHELL('',(#897,#929,#951,#973,#985,#997));
#999=MANIFOLD_SOLID_BREP('box',#998);
#1000=CARTESIAN_POINT('',(19.9000,-40.0000,12.6000));
#1001=VERTEX_POINT('',#1000);
#1002=CARTESIAN_POINT('',(23.9000,-40.0000,12.6000));
#1003=VERTEX_POINT('',#1002);
#1004=CARTESIAN_POINT('',(19.9000,-37.0000,12.6000));
#1005=VERTEX_POINT('',#1004);
#1006=CARTESIAN_POINT('',(23.9000,-37.0000,12.6000));
#1007=VERTEX_POINT('',#1006);
#1008=CARTESIAN_POINT('',(19.9000,-40.0000,14.1000));
#1009=VERTEX_POINT('',#1008);
#1010=CARTESIAN_POINT('',(23.9000,-40.0000,14.1000));
#1011=VERTEX_POINT('',#1010);
#1012=CARTESIAN_POINT('',(19.9000,-37.0000,14.1000));
#1013=VERTEX_POINT('',#1012);
#1014=CARTESIAN_POINT('',(23.9000,-37.0000,14.1000));
#1015=VERTEX_POINT('',#1014);
#1016=CARTESIAN_POINT('',(19.9000,-40.0000,12.6000));
#1017=DIRECTION('',(0.0,1.0,0.0));
#1018=VECTOR('',#1017,3.0000);
#1019=LINE('',#1016,#1018);
#1020=EDGE_CURVE('',#1001,#1005,#1019,.T.);
#1021=ORIENTED_EDGE('',*,*,#1020,.T.);
#1022=CARTESIAN_POINT('',(19.9000,-37.0000,12.6000));
#1023=DIRECTION('',(1.0,0.0,0.0));
#1024=VECTOR('',#1023,4.0000);
#1025=LINE('',#1022,#1024);
#1026=EDGE_CURVE('',#1005,#1007,#1025,.T.);
#1027=ORIENTED_EDGE('',*,*,#1026,.T.);
#1028=CARTESIAN_POINT('',(23.9000,-37.0000,12.6000));
#1029=DIRECTION('',(0.0,-1.0,0.0));
#1030=VECTOR('',#1029,3.0000);
#1031=LINE('',#1028,#1030);
#1032=EDGE_CURVE('',#1007,#1003,#1031,.T.);
#1033=ORIENTED_EDGE('',*,*,#1032,.T.);
#1034=CARTESIAN_POINT('',(23.9000,-40.0000,12.6000));
#1035=DIRECTION('',(-1.0,0.0,0.0));
#1036=VECTOR('',#1035,4.0000);
#1037=LINE('',#1034,#1036);
#1038=EDGE_CURVE('',#1003,#1001,#1037,.T.);
#1039=ORIENTED_EDGE('',*,*,#1038,.T.);
#1040=EDGE_LOOP('',(#1021,#1027,#1033,#1039));
#1041=FACE_OUTER_BOUND('',#1040,.T.);
#1042=CARTESIAN_POINT('',(19.9000,-40.0000,12.6000));
#1043=DIRECTION('',(0.0,0.0,-1.0));
#1044=DIRECTION('',(1.0,0.0,0.0));
#1045=AXIS2_PLACEMENT_3D('',#1042,#1043,#1044);
#1046=PLANE('',#1045);
#1047=ADVANCED_FACE('',(#1041),#1046,.T.);
#1048=CARTESIAN_POINT('',(19.9000,-40.0000,14.1000));
#1049=DIRECTION('',(1.0,0.0,0.0));
#1050=VECTOR('',#1049,4.0000);
#1051=LINE('',#1048,#1050);
#1052=EDGE_CURVE('',#1009,#1011,#1051,.T.);
#1053=ORIENTED_EDGE('',*,*,#1052,.T.);
#1054=CARTESIAN_POINT('',(23.9000,-40.0000,14.1000));
#1055=DIRECTION('',(0.0,1.0,0.0));
#1056=VECTOR('',#1055,3.0000);
#1057=LINE('',#1054,#1056);
#1058=EDGE_CURVE('',#1011,#1015,#1057,.T.);
#1059=ORIENTED_EDGE('',*,*,#1058,.T.);
#1060=CARTESIAN_POINT('',(23.9000,-37.0000,14.1000));
#1061=DIRECTION('',(-1.0,0.0,0.0));
#1062=VECTOR('',#1061,4.0000);
#1063=LINE('',#1060,#1062);
#1064=EDGE_CURVE('',#1015,#1013,#1063,.T.);
#1065=ORIENTED_EDGE('',*,*,#1064,.T.);
#1066=CARTESIAN_POINT('',(19.9000,-37.0000,14.1000));
#1067=DIRECTION('',(0.0,-1.0,0.0));
#1068=VECTOR('',#1067,3.0000);
#1069=LINE('',#1066,#1068);
#1070=EDGE_CURVE('',#1013,#1009,#1069,.T.);
#1071=ORIENTED_EDGE('',*,*,#1070,.T.);
#1072=EDGE_LOOP('',(#1053,#1059,#1065,#1071));
#1073=FACE_OUTER_BOUND('',#1072,.T.);
#1074=CARTESIAN_POINT('',(19.9000,-40.0000,14.1000));
#1075=DIRECTION('',(0.0,0.0,1.0));
#1076=DIRECTION('',(1.0,0.0,0.0));
#1077=AXIS2_PLACEMENT_3D('',#1074,#1075,#1076);
#1078=PLANE('',#1077);
#1079=ADVANCED_FACE('',(#1073),#1078,.T.);
#1080=ORIENTED_EDGE('',*,*,#1038,.F.);
#1081=CARTESIAN_POINT('',(23.9000,-40.0000,12.6000));
#1082=DIRECTION('',(0.0,0.0,1.0));
#1083=VECTOR('',#1082,1.5000);
#1084=LINE('',#1081,#1083);
#1085=EDGE_CURVE('',#1003,#1011,#1084,.T.);
#1086=ORIENTED_EDGE('',*,*,#1085,.T.);
#1087=ORIENTED_EDGE('',*,*,#1052,.F.);
#1088=CARTESIAN_POINT('',(19.9000,-40.0000,14.1000));
#1089=DIRECTION('',(0.0,0.0,-1.0));
#1090=VECTOR('',#1089,1.5000);
#1091=LINE('',#1088,#1090);
#1092=EDGE_CURVE('',#1009,#1001,#1091,.T.);
#1093=ORIENTED_EDGE('',*,*,#1092,.T.);
#1094=EDGE_LOOP('',(#1080,#1086,#1087,#1093));
#1095=FACE_OUTER_BOUND('',#1094,.T.);
#1096=CARTESIAN_POINT('',(19.9000,-40.0000,12.6000));
#1097=DIRECTION('',(0.0,-1.0,0.0));
#1098=DIRECTION('',(1.0,0.0,0.0));
#1099=AXIS2_PLACEMENT_3D('',#1096,#1097,#1098);
#1100=PLANE('',#1099);
#1101=ADVANCED_FACE('',(#1095),#1100,.T.);
#1102=CARTESIAN_POINT('',(19.9000,-37.0000,12.6000));
#1103=DIRECTION('',(0.0,0.0,1.0));
#1104=VECTOR('',#1103,1.5000);
#1105=LINE('',#1102,#1104);
#1106=EDGE_CURVE('',#1005,#1013,#1105,.T.);
#1107=ORIENTED_EDGE('',*,*,#1106,.T.);
#1108=ORIENTED_EDGE('',*,*,#1064,.F.);
#1109=CARTESIAN_POINT('',(23.9000,-37.0000,14.1000));
#1110=DIRECTION('',(0.0,0.0,-1.0));
#1111=VECTOR('',#1110,1.5000);
#1112=LINE('',#1109,#1111);
#1113=EDGE_CURVE('',#1015,#1007,#1112,.T.);
#1114=ORIENTED_EDGE('',*,*,#1113,.T.);
#1115=ORIENTED_EDGE('',*,*,#1026,.F.);
#1116=EDGE_LOOP('',(#1107,#1108,#1114,#1115));
#1117=FACE_OUTER_BOUND('',#1116,.T.);
#1118=CARTESIAN_POINT('',(19.9000,-37.0000,12.6000));
#1119=DIRECTION('',(0.0,1.0,0.0));
#1120=DIRECTION('',(1.0,0.0,0.0));
#1121=AXIS2_PLACEMENT_3D('',#1118,#1119,#1120);
#1122=PLANE('',#1121);
#1123=ADVANCED_FACE('',(#1117),#1122,.T.);
#1124=ORIENTED_EDGE('',*,*,#1092,.F.);
#1125=ORIENTED_EDGE('',*,*,#1070,.F.);
#1126=ORIENTED_EDGE('',*,*,#1106,.F.);
#1127=ORIENTED_EDGE('',*,*,#1020,.F.);
#1128=EDGE_LOOP('',(#1124,#1125,#1126,#1127));
#1129=FACE_OUTER_BOUND('',#1128,.T.);
#1130=CARTESIAN_POINT('',(19.9000,-40.0000,12.6000));
#1131=DIRECTION('',(-1.0,0.0,0.0));
#1132=DIRECTION('',(0.0,1.0,0.0));
#1133=AXIS2_PLACEMENT_3D('',#1130,#1131,#1132);
#1134=PLANE('',#1133);
#1135=ADVANCED_FACE('',(#1129),#1134,.T.);
#1136=ORIENTED_EDGE('',*,*,#1032,.F.);
#1137=ORIENTED_EDGE('',*,*,#1113,.F.);
#1138=ORIENTED_EDGE('',*,*,#1058,.F.);
#1139=ORIENTED_EDGE('',*,*,#1085,.F.);
#1140=EDGE_LOOP('',(#1136,#1137,#1138,#1139));
#1141=FACE_OUTER_BOUND('',#1140,.T.);
#1142=CARTESIAN_POINT('',(23.9000,-40.0000,12.6000));
#1143=DIRECTION('',(1.0,0.0,0.0));
#1144=DIRECTION('',(0.0,1.0,0.0));
#1145=AXIS2_PLACEMENT_3D('',#1142,#1143,#1144);
#1146=PLANE('',#1145);
#1147=ADVANCED_FACE('',(#1141),#1146,.T.);
#1148=CLOSED_SHELL('',(#1047,#1079,#1101,#1123,#1135,#1147));
#1149=MANIFOLD_SOLID_BREP('box',#1148);
ENDSEC;
END-ISO-10303-21;
